<mxfile host="app.diagrams.net" modified="2020-06-28T13:06:14.493Z" agent="5.0 (X11; Linux x86_64) AppleWebKit/537.36 (KHTML, like Gecko) Chrome/83.0.4103.61 Safari/537.36" etag="zaP2dw_EEYiwT6boVbx4" version="13.3.5" type="github">
  <diagram id="udnFVPB69K2jm-DDexUP" name="Page-1">
    <mxGraphModel dx="683" dy="1602" grid="1" gridSize="10" guides="1" tooltips="1" connect="1" arrows="1" fold="1" page="1" pageScale="1" pageWidth="827" pageHeight="1169" math="0" shadow="0">
      <root>
        <mxCell id="0" />
        <mxCell id="1" parent="0" />
        <mxCell id="FwJMeGbR7bKRREsvSvKf-1" value="&lt;p style=&quot;margin: 4px 0px 0px ; text-align: center ; font-size: 14px&quot;&gt;&lt;b style=&quot;font-size: 14px&quot;&gt;&lt;font style=&quot;font-size: 14px&quot;&gt;User&lt;/font&gt;&lt;/b&gt;&lt;/p&gt;&lt;hr style=&quot;font-size: 14px&quot;&gt;&lt;p style=&quot;margin: 0px 0px 0px 4px ; font-size: 14px&quot;&gt;&lt;span style=&quot;font-size: 14px&quot;&gt;- firstName: string&lt;/span&gt;&lt;br style=&quot;font-size: 14px&quot;&gt;&lt;/p&gt;&lt;p style=&quot;margin: 0px 0px 0px 4px ; font-size: 14px&quot;&gt;&lt;font style=&quot;font-size: 14px&quot;&gt;- lastName: string&lt;br style=&quot;font-size: 14px&quot;&gt;&lt;/font&gt;&lt;/p&gt;&lt;p style=&quot;margin: 0px 0px 0px 4px ; font-size: 14px&quot;&gt;&lt;font style=&quot;font-size: 14px&quot;&gt;- userName: string&lt;/font&gt;&lt;/p&gt;&lt;p style=&quot;margin: 0px 0px 0px 4px ; font-size: 14px&quot;&gt;&lt;font style=&quot;font-size: 14px&quot;&gt;- gender: string&lt;/font&gt;&lt;/p&gt;&lt;p style=&quot;margin: 0px 0px 0px 4px ; font-size: 14px&quot;&gt;&lt;font style=&quot;font-size: 14px&quot;&gt;- email: string&lt;/font&gt;&lt;/p&gt;&lt;p style=&quot;margin: 0px 0px 0px 4px ; font-size: 14px&quot;&gt;&lt;font style=&quot;font-size: 14px&quot;&gt;- password: string&lt;/font&gt;&lt;/p&gt;&lt;p style=&quot;margin: 0px 0px 0px 4px ; font-size: 14px&quot;&gt;&lt;font style=&quot;font-size: 14px&quot;&gt;- phoneNumber: string&lt;/font&gt;&lt;/p&gt;&lt;p style=&quot;margin: 0px 0px 0px 4px ; font-size: 14px&quot;&gt;&lt;font style=&quot;font-size: 14px&quot;&gt;- created_at: Date&lt;/font&gt;&lt;/p&gt;&lt;p style=&quot;margin: 0px 0px 0px 4px ; font-size: 14px&quot;&gt;&lt;font style=&quot;font-size: 14px&quot;&gt;- update_at: Date&lt;/font&gt;&lt;/p&gt;&lt;p style=&quot;margin: 0px 0px 0px 4px ; font-size: 14px&quot;&gt;&lt;br style=&quot;font-size: 14px&quot;&gt;&lt;/p&gt;" style="verticalAlign=top;align=left;overflow=fill;fontSize=14;fontFamily=Helvetica;html=1;fillColor=#f5f5f5;strokeColor=#666666;fontColor=#333333;" parent="1" vertex="1">
          <mxGeometry x="276" y="-784" width="160" height="200" as="geometry" />
        </mxCell>
        <mxCell id="FwJMeGbR7bKRREsvSvKf-2" value="&lt;p style=&quot;margin: 4px 0px 0px ; text-align: center ; font-size: 14px&quot;&gt;&lt;b style=&quot;font-size: 14px&quot;&gt;&lt;font style=&quot;font-size: 14px&quot;&gt;Comment&lt;/font&gt;&lt;/b&gt;&lt;/p&gt;&lt;hr style=&quot;font-size: 14px&quot;&gt;&lt;p style=&quot;margin: 0px 0px 0px 4px ; font-size: 14px&quot;&gt;&lt;br&gt;&lt;/p&gt;" style="verticalAlign=top;align=left;overflow=fill;fontSize=14;fontFamily=Helvetica;html=1;fillColor=#ffe6cc;strokeColor=#d79b00;" parent="1" vertex="1">
          <mxGeometry x="276" y="-494" width="160" height="54" as="geometry" />
        </mxCell>
        <mxCell id="FwJMeGbR7bKRREsvSvKf-3" value="&lt;p style=&quot;margin: 4px 0px 0px ; text-align: center ; font-size: 14px&quot;&gt;&lt;b style=&quot;font-size: 14px&quot;&gt;&lt;font style=&quot;font-size: 14px&quot;&gt;Order&lt;/font&gt;&lt;/b&gt;&lt;/p&gt;&lt;hr style=&quot;font-size: 14px&quot;&gt;&lt;p style=&quot;margin: 0px 0px 0px 4px ; font-size: 14px&quot;&gt;&lt;/p&gt;&lt;span style=&quot;font-size: 14px&quot;&gt;&amp;nbsp;&lt;br style=&quot;font-size: 14px&quot;&gt;&lt;/span&gt;" style="verticalAlign=top;align=left;overflow=fill;fontSize=14;fontFamily=Helvetica;html=1;fillColor=#ffe6cc;strokeColor=#d79b00;" parent="1" vertex="1">
          <mxGeometry x="516" y="-670" width="140" height="44" as="geometry" />
        </mxCell>
        <mxCell id="FwJMeGbR7bKRREsvSvKf-4" value="write" style="endArrow=none;html=1;endSize=12;startArrow=none;startSize=14;startFill=0;edgeStyle=orthogonalEdgeStyle;exitX=0.5;exitY=1;exitDx=0;exitDy=0;entryX=0.5;entryY=0;entryDx=0;entryDy=0;endFill=0;fontSize=14;" parent="1" source="FwJMeGbR7bKRREsvSvKf-1" target="FwJMeGbR7bKRREsvSvKf-2" edge="1">
          <mxGeometry relative="1" as="geometry">
            <mxPoint x="446" y="-584" as="sourcePoint" />
            <mxPoint x="606" y="-584" as="targetPoint" />
          </mxGeometry>
        </mxCell>
        <mxCell id="FwJMeGbR7bKRREsvSvKf-5" value="0..n" style="resizable=0;html=1;align=left;verticalAlign=top;labelBackgroundColor=#ffffff;fontSize=14;" parent="FwJMeGbR7bKRREsvSvKf-4" connectable="0" vertex="1">
          <mxGeometry x="-1" relative="1" as="geometry">
            <mxPoint y="60" as="offset" />
          </mxGeometry>
        </mxCell>
        <mxCell id="FwJMeGbR7bKRREsvSvKf-6" value="1" style="resizable=0;html=1;align=right;verticalAlign=top;labelBackgroundColor=#ffffff;fontSize=14;" parent="FwJMeGbR7bKRREsvSvKf-4" connectable="0" vertex="1">
          <mxGeometry x="1" relative="1" as="geometry">
            <mxPoint x="14" y="-90" as="offset" />
          </mxGeometry>
        </mxCell>
        <mxCell id="FwJMeGbR7bKRREsvSvKf-7" value="" style="endArrow=none;html=1;endSize=12;startArrow=none;startSize=14;startFill=0;edgeStyle=orthogonalEdgeStyle;exitX=1;exitY=0.25;exitDx=0;exitDy=0;entryX=0;entryY=0.25;entryDx=0;entryDy=0;endFill=0;fontSize=14;" parent="1" source="FwJMeGbR7bKRREsvSvKf-1" target="FwJMeGbR7bKRREsvSvKf-3" edge="1">
          <mxGeometry relative="1" as="geometry">
            <mxPoint x="366" y="-574" as="sourcePoint" />
            <mxPoint x="366" y="-414" as="targetPoint" />
          </mxGeometry>
        </mxCell>
        <mxCell id="FwJMeGbR7bKRREsvSvKf-8" value="" style="endArrow=none;html=1;exitX=0;exitY=0.5;exitDx=0;exitDy=0;entryX=0.5;entryY=1;entryDx=0;entryDy=0;fontSize=14;" parent="1" source="FwJMeGbR7bKRREsvSvKf-2" target="FwJMeGbR7bKRREsvSvKf-2" edge="1">
          <mxGeometry width="50" height="50" relative="1" as="geometry">
            <mxPoint x="446" y="-274" as="sourcePoint" />
            <mxPoint x="496" y="-324" as="targetPoint" />
            <Array as="points">
              <mxPoint x="240" y="-467" />
              <mxPoint x="240" y="-410" />
              <mxPoint x="356" y="-410" />
            </Array>
          </mxGeometry>
        </mxCell>
        <mxCell id="FwJMeGbR7bKRREsvSvKf-9" value="make" style="text;html=1;align=center;verticalAlign=middle;resizable=0;points=[];autosize=1;fontSize=14;" parent="1" vertex="1">
          <mxGeometry x="466" y="-754" width="50" height="20" as="geometry" />
        </mxCell>
        <mxCell id="FwJMeGbR7bKRREsvSvKf-10" value="&lt;p style=&quot;margin: 4px 0px 0px ; text-align: center ; font-size: 15px&quot;&gt;&lt;b&gt;&lt;font style=&quot;font-size: 15px&quot;&gt;Adress&lt;/font&gt;&lt;/b&gt;&lt;/p&gt;&lt;hr style=&quot;font-size: 15px&quot;&gt;&lt;p style=&quot;margin: 0px 0px 0px 4px ; font-size: 15px&quot;&gt;&lt;font style=&quot;font-size: 15px&quot;&gt;- streetNumber: string&lt;/font&gt;&lt;/p&gt;&lt;p style=&quot;margin: 0px 0px 0px 4px ; font-size: 15px&quot;&gt;&lt;font style=&quot;font-size: 15px&quot;&gt;- streetName: string&lt;/font&gt;&lt;/p&gt;&lt;p style=&quot;margin: 0px 0px 0px 4px ; font-size: 15px&quot;&gt;&lt;font style=&quot;font-size: 15px&quot;&gt;- postalCode: string&lt;br&gt;&lt;/font&gt;&lt;/p&gt;&lt;p style=&quot;margin: 0px 0px 0px 4px ; font-size: 15px&quot;&gt;&lt;font style=&quot;font-size: 15px&quot;&gt;- city: string&lt;/font&gt;&lt;/p&gt;&lt;p style=&quot;margin: 0px 0px 0px 4px ; font-size: 15px&quot;&gt;&lt;br&gt;&lt;/p&gt;" style="verticalAlign=top;align=left;overflow=fill;fontSize=14;fontFamily=Helvetica;html=1;fillColor=#f5f5f5;strokeColor=#666666;fontColor=#333333;" parent="1" vertex="1">
          <mxGeometry x="60" y="-654" width="160" height="120" as="geometry" />
        </mxCell>
        <mxCell id="FwJMeGbR7bKRREsvSvKf-11" value="" style="endArrow=none;html=1;exitX=0.5;exitY=0;exitDx=0;exitDy=0;entryX=0;entryY=0.25;entryDx=0;entryDy=0;" parent="1" source="FwJMeGbR7bKRREsvSvKf-10" target="FwJMeGbR7bKRREsvSvKf-1" edge="1">
          <mxGeometry width="50" height="50" relative="1" as="geometry">
            <mxPoint x="310" y="-584" as="sourcePoint" />
            <mxPoint x="360" y="-634" as="targetPoint" />
            <Array as="points">
              <mxPoint x="140" y="-734" />
            </Array>
          </mxGeometry>
        </mxCell>
        <mxCell id="FwJMeGbR7bKRREsvSvKf-45" value="1" style="resizable=0;html=1;align=right;verticalAlign=top;labelBackgroundColor=#ffffff;fontSize=14;" parent="1" connectable="0" vertex="1">
          <mxGeometry x="450" y="-764" as="geometry" />
        </mxCell>
        <mxCell id="FwJMeGbR7bKRREsvSvKf-46" value="0..n" style="resizable=0;html=1;align=left;verticalAlign=top;labelBackgroundColor=#ffffff;fontSize=14;" parent="1" connectable="0" vertex="1">
          <mxGeometry x="480" y="-684" as="geometry" />
        </mxCell>
        <mxCell id="FwJMeGbR7bKRREsvSvKf-47" value="0..n" style="resizable=0;html=1;align=left;verticalAlign=top;labelBackgroundColor=#ffffff;fontSize=14;" parent="1" connectable="0" vertex="1">
          <mxGeometry x="356" y="-420" as="geometry" />
        </mxCell>
        <mxCell id="FwJMeGbR7bKRREsvSvKf-48" value="1" style="resizable=0;html=1;align=right;verticalAlign=top;labelBackgroundColor=#ffffff;fontSize=14;" parent="1" connectable="0" vertex="1">
          <mxGeometry x="270" y="-474" as="geometry" />
        </mxCell>
        <mxCell id="d79iNzQjH-jLoD6db4tC-1" value="La classe mère de order est définie dans le ms order" style="shape=note;whiteSpace=wrap;html=1;backgroundOutline=1;darkOpacity=0.05;fillColor=#fff2cc;strokeColor=#d6b656;" vertex="1" parent="1">
          <mxGeometry x="540" y="-790" width="108" height="106" as="geometry" />
        </mxCell>
        <mxCell id="d79iNzQjH-jLoD6db4tC-2" value="La classe mère de comment est définie dans le ms comment" style="shape=note;whiteSpace=wrap;html=1;backgroundOutline=1;darkOpacity=0.05;fillColor=#fff2cc;strokeColor=#d6b656;" vertex="1" parent="1">
          <mxGeometry x="450" y="-520" width="108" height="106" as="geometry" />
        </mxCell>
      </root>
    </mxGraphModel>
  </diagram>
</mxfile>
